<?xml version="1.0" encoding="UTF-8" standalone="no"?>
<svg xmlns="http://www.w3.org/2000/svg" version="1.1"
   width="104.57392" height="104.57392" viewBox="0 0 78.430441 78.430441">
  <g transform="matrix(1.0397569,0,0,1.0397569,9.2034129,81.939157)">
   <path style="fill:#304761"
      d="m 65.995319,-59.868375 c 0,0 -3.829451,2.552299 -5.106604,7.447339 -1.277102,4.893135 -4.256439,27.235203 -4.256439,30.21454 0,2.979387 1.915704,4.89509 2.767774,5.745204 0.850114,0.852071 -2.87358,2.873531 -2.87358,2.873531 0,0 -2.234979,-2.234979 -4.362246,-2.234979 -2.127267,0 -18.085629,4.89504 -20.001332,6.8087877 -1.915704,1.9157536 -2.660061,5.2143659 -2.660061,5.2143659 l -4.25649,0.4250322 c 0,0 0.427038,-3.404369 -1.382909,-5.2123602 C 22.055441,-10.396861 0.88080779,-33.097418 -1.3502599,-33.802612 c -3.7021823,-1.171346 -6.9165504,-0.319276 -6.9165504,-0.319276 v -4.04297 c 0,0 2.1781643,-0.485758 5.3201225,-2.554255 2.09587578,-1.377042 7.7979556,-10.753824 14.1699778,-18.636074 5.91951,-7.325937 12.569638,-13.210145 13.492212,-14.13277 1.913748,-1.913748 1.488716,-5.318117 1.488716,-5.318117 h 3.404369 c 0,0 0.213519,2.127217 1.915704,3.829452 1.702234,1.702184 21.492003,10.840024 25.321454,11.915391 3.686487,1.036204 7.872472,0 7.872472,0 z" />
   <path style="fill:#ffffff"
      d="m 28.574339,-72.159857 c 4.04297,0 30.18716,10.375779 30.18716,14.207186 0,3.829451 -2.02151,32.02253 -5.320123,35.321142 -3.298612,3.298613 -22.980669,11.49036 -25.534973,11.49036 -2.552299,0 -25.4174333,-19.315795 -27.55447839,-25.002179 C -1.7851205,-41.829783 24.531369,-72.159857 28.574339,-72.159857" />
   <path style="fill:#b51c21"
      d="m 42.164536,-48.591534 c 0,5.0537 -4.09783,9.149574 -9.15153,9.149574 -5.051744,0 -9.149574,-4.095874 -9.149574,-9.149574 0,-5.053751 4.09783,-9.149574 9.149574,-9.149574 5.0537,0 9.15153,4.095823 9.15153,9.149574" />
   <path style="fill:#b51c21"
      d="m 31.524291,-24.333713 c 0,3.173249 -2.571906,5.745155 -5.745155,5.745155 -3.173249,0 -5.745155,-2.571906 -5.745155,-5.745155 0,-3.173299 2.571906,-5.745205 5.745155,-5.745205 3.173249,0 5.745155,2.571906 5.745155,5.745205" />
   <path style="fill:#eebd14"
      d="m 33.865076,-63.272794 c 0,2.233023 -1.809947,4.04297 -4.04297,4.04297 -2.233023,0 -4.04297,-1.809947 -4.04297,-4.04297 0,-2.233023 1.809947,-4.04297 4.04297,-4.04297 2.233023,0 4.04297,1.809947 4.04297,4.04297" />
   <path style="fill:#7087ab"
      d="m 23.863432,-56.889038 c 0,0.940226 -0.761958,1.702184 -1.702184,1.702184 -0.940226,0 -1.702235,-0.761958 -1.702235,-1.702184 0,-0.940226 0.762009,-1.702184 1.702235,-1.702184 0.940226,0 1.702184,0.761958 1.702184,1.702184" />
   <path style="fill:#7087ab"
      d="m 19.39538,-53.698138 c 0,1.175257 -0.95196,2.127267 -2.127217,2.127267 -1.175307,0 -2.127266,-0.95201 -2.127266,-2.127267 0,-1.175307 0.951959,-2.127267 2.127266,-2.127267 1.175257,0 2.127217,0.95196 2.127217,2.127267" />
   <path style="fill:#4fb035"
      d="m 16.20453,-47.845271 c 0,1.467153 -1.190953,2.658106 -2.660061,2.658106 -1.469109,0 -2.660062,-1.190953 -2.660062,-2.658106 0,-1.469059 1.190953,-2.660011 2.660062,-2.660011 1.469108,0 2.660061,1.190952 2.660061,2.660011" />
   <path style="fill:#eebd14"
      d="m 37.269495,-34.54692 c 0,0.705144 -0.571958,1.277102 -1.277152,1.277102 -0.705144,0 -1.275197,-0.571958 -1.275197,-1.277102 0,-0.705194 0.570053,-1.277153 1.275197,-1.277153 0.705194,0 1.277152,0.571959 1.277152,1.277153" />
   <path style="fill:#4fb035"
      d="m 41.525985,-62.209161 c 0,1.175308 -0.953966,2.127267 -2.129223,2.127267 -1.173351,0 -2.127267,-0.951959 -2.127267,-2.127267 0,-1.175257 0.953916,-2.127266 2.127267,-2.127266 1.175257,0 2.129223,0.952009 2.129223,2.127266" />
  </g>
</svg>
