<svg xmlns="http://www.w3.org/2000/svg" xmlns:xlink="http://www.w3.org/1999/xlink" version="1.1"
   width="400" height="105" viewBox="0 0 300 78.75" >
  <defs>
   <g>
    <path d="M 43.40625,-34.09375 C 43.5,-44.5 39.40625,-47.296875 24.203125,-47.296875 8.203125,-47.296875 4,-44.5 4,-33.703125 c 0,7.40625 2.203125,11 7.703125,12.40625 C 14.5,-20.5 21.5,-20 29,-19.90625 c 5.296875,0.109375 6.703125,1.40625 6.703125,6.609375 C 35.703125,-7.5 33.40625,-6.09375 24,-6.09375 19.40625,-6.09375 16.5,-6.5 15.296875,-7.203125 13.796875,-8.09375 13,-10.203125 13,-13 c 0,-0.296875 0,-1 0.09375,-1.796875 h -9.5 v 2 c 0,10.09375 4.90625,13.390625 20.109375,13.390625 9.59375,0 14.09375,-0.890625 17.203125,-3.5 2.59375,-2.1875 4,-6 4,-11 0,-7.390625 -2.703125,-11.390625 -8.609375,-12.6875 -2,-0.40625 -2,-0.40625 -11,-0.90625 C 17.09375,-27.90625 17.09375,-27.90625 16,-28.203125 c -2.09375,-0.703125 -2.90625,-2.296875 -2.90625,-6 0,-5.5 1.40625,-6.390625 10.609375,-6.390625 9.5,0 10.296875,0.5 10.703125,6.5 z"
     id="path5" />
    <path d="m 36.90625,-14.59375 c 0,7 -1.5,8 -11.3125,8 -6.390625,0 -9.5,-1.109375 -10.59375,-3.90625 -0.90625,-2.09375 -1.40625,-5.5 -1.40625,-9.796875 v -1.40625 H 46.203125 C 46.203125,-31.296875 46,-34 45.09375,-37.09375 42.796875,-44.796875 37.90625,-47.296875 25.5,-47.296875 c -17.09375,0 -21.296875,4.703125 -21.296875,23.796875 0,19.5 4.09375,24.09375 21.5,24.09375 15.203125,0 20.5,-3.5 20.5,-13.390625 v -1.796875 z m -23.203125,-13.3125 c 0.09375,-10.59375 1.796875,-12.390625 12,-12.390625 6.5,0 9,0.890625 10.296875,3.703125 0.796875,1.6875 0.90625,2.5 1,8.6875 z"
     id="path8" />
    <path d="M 5.703125,-46.703125 V 0 h 9.203125 v -26.796875 c 0,-9.296875 3.296875,-12.90625 12.09375,-12.90625 4.09375,0 6.90625,1 8.09375,3 0.703125,1.203125 0.703125,1.296875 0.90625,7 V 0 h 9.203125 v -27.203125 c 0,-3.59375 0.296875,-6.09375 1,-7.59375 C 47.5,-38 51.5,-39.703125 57.40625,-39.703125 c 7,0 9,2.296875 9,9.90625 V 0 h 9.1875 v -30.703125 c 0,-5.09375 -0.59375,-8.203125 -1.890625,-10.5 -2.296875,-4 -7.203125,-6.09375 -14.296875,-6.09375 C 51.296875,-47.296875 46.703125,-44.90625 44,-39 H 43.796875 C 42.5,-44.5 37.59375,-47.296875 29.5,-47.296875 21.703125,-47.296875 17.5,-45 14.90625,-39.5 l -0.203125,-0.09375 0.203125,-7.109375 z"
     id="path11" />
    <path d="M 46.203125,-66.703125 H 37 V -40.5 l -0.203125,0.09375 c -1.890625,-4.890625 -6.09375,-6.890625 -14.5,-6.890625 -6.390625,0 -10.890625,1.5 -13.5,4.296875 -3.390625,3.796875 -4.5,8.5 -4.5,18.90625 0,11.6875 1.109375,16.59375 4.40625,20.1875 2.703125,3 7.5,4.5 14,4.5 8.203125,0 12.203125,-2.09375 14.59375,-7.5 L 37.5,-6.796875 37.203125,0 h 9 z M 25,-39.796875 c 9.59375,0 12,3.09375 12,15.296875 0,7.90625 -0.703125,12.40625 -2.09375,14.40625 -1.5,2.1875 -4.703125,3.296875 -9.8125,3.296875 -9.5,0 -11.390625,-2.90625 -11.390625,-17.5 0,-7.109375 0.890625,-11.40625 2.703125,-13.296875 1.296875,-1.40625 4.5,-2.203125 8.59375,-2.203125 z"
     id="path14" />
    <path d="M 14.90625,-66.703125 H 5.703125 V -58 h 9.203125 z m 0,20 H 5.703125 V 0 h 9.203125 z m 0,0"
     id="path17" />
    <path d="m 36.59375,-17.40625 c 0,9.109375 -1.5,10.609375 -10.5,10.609375 -5.1875,0 -8.09375,-0.5 -9.5,-1.796875 -2.09375,-1.8125 -3,-6.40625 -3,-14.5 0,-14.5 1.5,-16.8125 10.90625,-16.8125 9.5,0 11.5,1.5 11.40625,9.109375 H 45 c -0.09375,-12.796875 -4.59375,-16.5 -20.09375,-16.5 -9.109375,0 -14.5,1.890625 -17.40625,6.203125 C 5.09375,-37.5 4.203125,-32.90625 4.203125,-23.5 c 0,19.5 4.09375,24.09375 21.390625,24.09375 8.5,0 12.609375,-0.890625 15.8125,-3.390625 2.890625,-2.5 4.296875,-6.40625 4.296875,-12.609375 v -2 z"
     id="path20" />
    <path d="m 25.40625,-47.296875 c -17.40625,0 -21.203125,4.203125 -21.203125,22.890625 0,12.90625 1.203125,17.90625 5,21.3125 3,2.6875 7.5,3.6875 16.5,3.6875 C 43.5,0.59375 47,-3.5 47,-24.296875 c 0,-19.109375 -3.703125,-23 -21.59375,-23 z m 0.1875,7.390625 c 10.5,0 11.90625,1.8125 11.90625,16 0,15.109375 -1.40625,17.109375 -11.796875,17.109375 -10.796875,0 -12,-1.703125 -12,-17.203125 0,-8.5 0.796875,-12.5 2.890625,-14.203125 1.3125,-1.09375 4.3125,-1.703125 9,-1.703125 z"
     id="path23" />
   </g>
  </defs>
  <g style="fill:#304761" transform="matrix(1.0437445,0,0,1.0437445,-4.3578239,83.571561)">
    <g transform="matrix(0.50145367,0,0,0.50145367,-63.881182,-246.06835)">
    <use x="309.0" y="435.4664" xlink:href="#path5" />
    <use x="357.5" y="435.4664" xlink:href="#path8" />
    <use x="408.0" y="435.4664" xlink:href="#path11" />
    <use x="490.2" y="435.4664" xlink:href="#path8" />
    <use x="540.7" y="435.4664" xlink:href="#path14" />
    <use x="592.6" y="435.4664" xlink:href="#path17" />
    <use x="613.3" y="435.4664" xlink:href="#path20" />
    <use x="662.1" y="435.4664" xlink:href="#path23" />
   </g>
  </g>
  <g transform="matrix(1.0397569,0,0,1.0397569,8.8907065,82.25818)">
    <path style="fill:#304761"
       d="m 65.995319,-59.868375 c 0,0 -3.829451,2.552299 -5.106604,7.447339 -1.277102,4.893135 -4.256439,27.235203 -4.256439,30.21454 0,2.979387 1.915704,4.89509 2.767774,5.745204 0.850114,0.852071 -2.87358,2.873531 -2.87358,2.873531 0,0 -2.234979,-2.234979 -4.362246,-2.234979 -2.127267,0 -18.085629,4.89504 -20.001332,6.8087877 -1.915704,1.9157536 -2.660061,5.2143659 -2.660061,5.2143659 l -4.25649,0.4250322 c 0,0 0.427038,-3.404369 -1.382909,-5.2123602 C 22.055441,-10.396861 0.88080779,-33.097418 -1.3502599,-33.802612 c -3.7021823,-1.171346 -6.9165504,-0.319276 -6.9165504,-0.319276 v -4.04297 c 0,0 2.1781643,-0.485758 5.3201225,-2.554255 2.09587578,-1.377042 7.7979556,-10.753824 14.1699778,-18.636074 5.91951,-7.325937 12.569638,-13.210145 13.492212,-14.13277 1.913748,-1.913748 1.488716,-5.318117 1.488716,-5.318117 h 3.404369 c 0,0 0.213519,2.127217 1.915704,3.829452 1.702234,1.702184 21.492003,10.840024 25.321454,11.915391 3.686487,1.036204 7.872472,0 7.872472,0 z" />
    <path style="fill:#ffffff"
       d="m 28.574339,-72.159857 c 4.04297,0 30.18716,10.375779 30.18716,14.207186 0,3.829451 -2.02151,32.02253 -5.320123,35.321142 -3.298612,3.298613 -22.980669,11.49036 -25.534973,11.49036 -2.552299,0 -25.4174333,-19.315795 -27.55447839,-25.002179 C -1.7851205,-41.829783 24.531369,-72.159857 28.574339,-72.159857" />
    <path style="fill:#b51c21"
       d="m 42.164536,-48.591534 c 0,5.0537 -4.09783,9.149574 -9.15153,9.149574 -5.051744,0 -9.149574,-4.095874 -9.149574,-9.149574 0,-5.053751 4.09783,-9.149574 9.149574,-9.149574 5.0537,0 9.15153,4.095823 9.15153,9.149574" />
    <path style="fill:#b51c21"
       d="m 31.524291,-24.333713 c 0,3.173249 -2.571906,5.745155 -5.745155,5.745155 -3.173249,0 -5.745155,-2.571906 -5.745155,-5.745155 0,-3.173299 2.571906,-5.745205 5.745155,-5.745205 3.173249,0 5.745155,2.571906 5.745155,5.745205" />
    <path style="fill:#eebd14"
       d="m 33.865076,-63.272794 c 0,2.233023 -1.809947,4.04297 -4.04297,4.04297 -2.233023,0 -4.04297,-1.809947 -4.04297,-4.04297 0,-2.233023 1.809947,-4.04297 4.04297,-4.04297 2.233023,0 4.04297,1.809947 4.04297,4.04297" />
    <path style="fill:#7087ab"
       d="m 23.863432,-56.889038 c 0,0.940226 -0.761958,1.702184 -1.702184,1.702184 -0.940226,0 -1.702235,-0.761958 -1.702235,-1.702184 0,-0.940226 0.762009,-1.702184 1.702235,-1.702184 0.940226,0 1.702184,0.761958 1.702184,1.702184" />
    <path style="fill:#7087ab"
       d="m 19.39538,-53.698138 c 0,1.175257 -0.95196,2.127267 -2.127217,2.127267 -1.175307,0 -2.127266,-0.95201 -2.127266,-2.127267 0,-1.175307 0.951959,-2.127267 2.127266,-2.127267 1.175257,0 2.127217,0.95196 2.127217,2.127267" />
    <path style="fill:#4fb035"
       d="m 16.20453,-47.845271 c 0,1.467153 -1.190953,2.658106 -2.660061,2.658106 -1.469109,0 -2.660062,-1.190953 -2.660062,-2.658106 0,-1.469059 1.190953,-2.660011 2.660062,-2.660011 1.469108,0 2.660061,1.190952 2.660061,2.660011" />
    <path style="fill:#eebd14"
       d="m 37.269495,-34.54692 c 0,0.705144 -0.571958,1.277102 -1.277152,1.277102 -0.705144,0 -1.275197,-0.571958 -1.275197,-1.277102 0,-0.705194 0.570053,-1.277153 1.275197,-1.277153 0.705194,0 1.277152,0.571959 1.277152,1.277153" />
    <path style="fill:#4fb035"
       d="m 41.525985,-62.209161 c 0,1.175308 -0.953966,2.127267 -2.129223,2.127267 -1.173351,0 -2.127267,-0.951959 -2.127267,-2.127267 0,-1.175257 0.953916,-2.127266 2.127267,-2.127266 1.175257,0 2.129223,0.952009 2.129223,2.127266" />
  </g>
  <g transform="matrix(1.1719394,0,0,1.2473646,-62.349962,-11.884199)" style="fill:#7998bc" >
    <path d="m 240.34796,58.555011 c 0,-1.380381 -1.15501,-1.399162 -2.12222,-1.399162 -1.2677,0 -2.24429,0.02817 -2.24429,1.380381 0,1.258307 0.32866,1.502456 2.141,1.530627 1.19257,0.01878 1.22074,0.234759 1.22074,0.666715 0,0.676105 -0.41317,0.657324 -1.11745,0.657324 -0.8733,0 -1.04233,-0.08451 -1.06111,-0.798179 h -1.18318 c 0,1.605749 0.90147,1.605749 2.24429,1.605749 1.24892,0 2.30063,-0.131465 2.30063,-1.464894 0,-1.596359 -1.03293,-1.511846 -2.19734,-1.568188 -1.03294,-0.04695 -1.1644,-0.06573 -1.1644,-0.554031 0,-0.647934 0.43196,-0.647934 1.06111,-0.647934 0.62915,0 0.93903,0 0.93903,0.591592 z" />
    <path d="m 244.59841,60.573936 c 0,0.732447 -0.46013,0.723057 -1.11745,0.723057 -1.06111,0 -1.08928,-0.338053 -1.08928,-1.399162 h 3.38992 c 0,-2.15039 -0.27233,-2.741982 -2.30064,-2.741982 -1.99075,0 -2.27246,0.770009 -2.27246,2.535394 0,1.906241 0.385,2.507223 2.27246,2.507223 1.40855,0 2.30064,-0.07512 2.30064,-1.62453 z m -2.20673,-1.427333 c 0,-0.873302 0.0657,-1.08928 1.08928,-1.08928 0.96721,0 1.11745,0.07512 1.11745,1.08928 z" />
    <path d="m 248.83639,59.926002 c 0.5822,0 1.08928,0.01878 1.08928,0.704276 0,0.704276 -0.46012,0.760618 -1.08928,0.760618 -0.79818,0 -1.07989,-0.06573 -1.07989,-0.760618 0,-0.704276 0.47891,-0.704276 1.07989,-0.704276 z m 1.08928,2.216122 h 1.18319 V 59.0527 c 0,-1.652702 -0.65733,-1.896851 -2.23491,-1.896851 -1.12684,0 -2.11282,0.05634 -2.11282,1.493066 h 1.18318 c 0,-0.638544 0.41317,-0.685496 0.92964,-0.685496 0.98599,0 1.05172,0.281711 1.05172,1.07989 v 0.638544 h -0.0376 c -0.28171,-0.554031 -0.8733,-0.563421 -1.47428,-0.563421 -1.22075,0 -1.84051,0.328662 -1.84051,1.511846 0,1.33343 0.72306,1.568188 1.84051,1.568188 0.57281,0 1.29587,-0.01878 1.53062,-0.676105 h 0.0282 z" />
    <path d="m 252.20606,57.212191 v 4.929933 h 1.18318 v -3.042473 c -0.0188,-0.638543 0.18781,-1.042328 0.89209,-1.042328 0.55403,0 0.60098,0.2911 0.60098,0.788789 v 0.253539 h 1.10806 v -0.394394 c 0,-0.929645 -0.25354,-1.549408 -1.29587,-1.549408 -0.57281,0 -1.07989,0.159636 -1.31465,0.704276 h -0.047 l 0.0282,-0.647934 z" />
    <path d="m 259.9016,60.264054 c 0,0.863913 -0.0939,1.032939 -1.06111,1.032939 -1.04233,0 -1.02355,-0.385004 -1.02355,-1.61514 0,-1.267697 0.009,-1.62453 1.02355,-1.62453 0.82635,0 1.06111,0.131464 1.06111,0.882692 h 1.18318 c 0,-1.558797 -0.7794,-1.784166 -2.24429,-1.784166 -1.93441,0 -2.20673,0.79818 -2.20673,2.526004 0,1.990754 0.39439,2.516613 2.20673,2.516613 1.66209,0 2.24429,-0.319272 2.24429,-1.934412 z" />
    <path d="m 263.13921,55.099363 h -1.18318 v 7.042761 h 1.18318 v -2.713811 c 0,-0.882692 0.14086,-1.37099 1.1738,-1.37099 0.76062,0 0.92025,0.244149 0.92025,0.957815 v 3.126986 h 1.18319 v -3.24906 c 0,-1.201965 -0.3944,-1.737215 -1.69027,-1.737215 -0.69488,0 -1.28647,0.07512 -1.5494,0.79818 h -0.0376 z" />
    <path d="m 270.81318,62.142124 h 1.35221 V 59.86027 h 1.76539 c 1.84051,0 2.50722,-0.347443 2.50722,-2.338197 0,-1.971973 -0.61976,-2.42271 -2.50722,-2.42271 h -3.1176 z m 1.35221,-3.436867 v -2.450881 h 1.76539 c 1.01416,-0.0094 1.15501,0.27232 1.15501,1.267697 0,0.985986 -0.18781,1.164403 -1.15501,1.183184 z" />
    <path d="m 281.70173,62.142124 v -4.929933 h -1.18318 v 2.845276 c 0,0.854522 -0.2911,1.239526 -1.20197,1.239526 -0.76062,0 -0.82635,-0.27232 -0.82635,-0.976596 v -3.108206 h -1.18318 v 3.568333 c 0.009,1.07989 0.66671,1.417942 1.6527,1.417942 0.6761,0 1.28648,-0.159636 1.5588,-0.81696 h 0.0376 v 0.760618 z" />
    <path d="m 285.21137,58.057323 c 0.81696,0 1.05172,0.234758 1.05172,1.474284 0,1.117452 0.0282,1.765386 -1.05172,1.765386 -1.21135,0 -1.18318,-0.591592 -1.18318,-1.765386 0,-1.051719 0.15964,-1.474284 1.18318,-1.474284 z m -2.36636,4.084801 h 1.18318 l -0.0469,-0.741837 h 0.0376 c 0.30049,0.647934 0.84513,0.798179 1.54002,0.798179 1.83111,0 1.88746,-1.155013 1.88746,-2.666859 0,-1.446113 -0.1972,-2.375758 -1.88746,-2.375758 -0.60099,0 -1.23014,0.112684 -1.48368,0.713667 h -0.0469 v -2.770153 h -1.18318 z" />
    <path d="m 295.42573,56.207424 h 0.047 l -0.11269,5.9347 h 1.35221 v -7.042761 h -2.21612 l -1.87807,5.230424 h -0.0376 l -1.91563,-5.230424 h -2.16917 v 7.042761 h 1.35221 l -0.11269,-5.906529 h 0.0282 l 2.2349,5.906529 h 1.21135 z" />
    <path d="m 301.12391,60.573936 c 0,0.732447 -0.46013,0.723057 -1.11746,0.723057 -1.0611,0 -1.08928,-0.338053 -1.08928,-1.399162 h 3.38992 c 0,-2.15039 -0.27232,-2.741982 -2.30064,-2.741982 -1.99075,0 -2.27246,0.770009 -2.27246,2.535394 0,1.906241 0.385,2.507223 2.27246,2.507223 1.40856,0 2.30064,-0.07512 2.30064,-1.62453 z m -2.20674,-1.427333 c 0,-0.873302 0.0657,-1.08928 1.08928,-1.08928 0.96721,0 1.11746,0.07512 1.11746,1.08928 z" />
    <path d="m 305.31494,58.057323 c 1.02355,0 1.1644,0.422565 1.1644,1.474284 0,1.173794 0.047,1.765386 -1.1644,1.765386 -1.07989,0 -1.05172,-0.647934 -1.05172,-1.765386 0,-1.239526 0.23476,-1.474284 1.05172,-1.474284 z m 1.18318,4.084801 h 1.18319 v -7.042761 h -1.18319 v 2.770153 h -0.0469 c -0.25354,-0.600983 -0.88269,-0.713667 -1.48368,-0.713667 -1.69026,0 -1.88746,0.929645 -1.88746,2.375758 0,1.511846 0.0563,2.666859 1.88746,2.666859 0.69489,0 1.23953,-0.150245 1.54002,-0.798179 h 0.0376 z" />
  </g>
</svg>
